<svg xmlns="http://www.w3.org/2000/svg" viewBox="0 0 360.5 328.98"><defs><style>.cls-1{fill:#f5f4f5;}.cls-2{fill:#eee;}.cls-10,.cls-17,.cls-22,.cls-3{fill:none;}.cls-3{stroke:#bdbcbc;stroke-width:0.5px;}.cls-10,.cls-14,.cls-17,.cls-22,.cls-26,.cls-3,.cls-7{stroke-miterlimit:10;}.cls-16,.cls-19,.cls-24,.cls-4{font-size:11px;}.cls-4{fill:#bdbcbc;letter-spacing:0.2em;}.cls-12,.cls-19,.cls-21,.cls-24,.cls-4{font-family:SFProDisplay-Medium, SF Pro Display;}.cls-12,.cls-15,.cls-16,.cls-19,.cls-21,.cls-24,.cls-4,.cls-8{font-weight:500;}.cls-5{letter-spacing:0.18em;}.cls-6{letter-spacing:0.2em;}.cls-11,.cls-12,.cls-16,.cls-7{fill:#424242;}.cls-7{fill-opacity:0.15;}.cls-10,.cls-7{stroke:#424242;}.cls-15,.cls-21,.cls-8{font-size:13px;}.cls-8{fill:#2e72b8;}.cls-15,.cls-16,.cls-8{font-family:SFMonoLigaturized-Medium, SF Mono;}.cls-9{font-family:SFProDisplay-Light, SF Pro Display;font-weight:300;}.cls-12{font-size:10px;}.cls-13{letter-spacing:-0.02em;}.cls-14,.cls-15,.cls-18,.cls-19{fill:#4daf50;}.cls-14,.cls-26{fill-opacity:0.3;}.cls-14,.cls-17{stroke:#4daf50;}.cls-20{letter-spacing:-0.1em;}.cls-21{fill:#388e3c;}.cls-22{stroke:#e84539;}.cls-23,.cls-24{fill:#e84539;}.cls-25{letter-spacing:-0.03em;}.cls-26{fill:#428ecc;stroke:#428ecc;}</style></defs><g id="Calque_2" data-name="Calque 2"><g id="Calque_2-2" data-name="Calque 2"><path class="cls-1" d="M10.25.25h340a10,10,0,0,1,10,10v224a0,0,0,0,1,0,0H.25a0,0,0,0,1,0,0v-224A10,10,0,0,1,10.25.25Z"/><path class="cls-2" d="M.25,234.25h360a0,0,0,0,1,0,0v62a10,10,0,0,1-10,10h-340a10,10,0,0,1-10-10v-62A0,0,0,0,1,.25,234.25Z"/><rect class="cls-3" x="0.25" y="0.25" width="360" height="306" rx="10"/><line class="cls-3" x1="0.25" y1="234.25" x2="360.25" y2="234.25"/><text class="cls-4" transform="translate(270.09 18.25)">DI<tspan class="cls-5" x="14.58" y="0">A</tspan><tspan class="cls-6" x="23.68" y="0">GRAMME</tspan></text><text class="cls-4" transform="translate(315.17 252.25)">CODE</text></g><g id="Calque_1-2" data-name="Calque 1"><rect class="cls-7" x="180.25" y="180.25" width="90" height="18" rx="5.26"/><text class="cls-8" transform="translate(39.14 131.55)">for<tspan class="cls-9"><tspan x="-0.37" y="15.6">pour</tspan></tspan></text><line class="cls-10" x1="153.25" y1="36.25" x2="153.25" y2="54.39"/><polygon class="cls-11" points="150.34 52.41 153.25 63.25 156.16 52.41 150.34 52.41"/><rect class="cls-7" x="108.25" y="63.25" width="90" height="18" rx="5.26"/><circle class="cls-11" cx="153.32" cy="27.25" r="4.5"/><text class="cls-12" transform="translate(139.32 18.25)">Ent<tspan class="cls-13" x="14.25" y="0">r</tspan><tspan x="17.31" y="0">ée</tspan></text><text class="cls-8" transform="translate(18.25 261.25)">for <tspan class="cls-11" x="32.14" y="0">i</tspan><tspan x="40.18" y="0" xml:space="preserve"> in range(</tspan><tspan class="cls-11" x="120.54" y="0">debut, fin, pas</tspan><tspan x="241.08" y="0">):</tspan><tspan x="0" y="15.6" xml:space="preserve">    </tspan></text><rect class="cls-14" x="37.65" y="267.25" width="163.38" height="25.46" rx="8.44"/><text class="cls-15"><tspan x="10.65" y="285.12" xml:space="preserve">    Bloc d’instructions</tspan></text><text class="cls-16" transform="translate(122.65 76.6)">i = debut</text><line class="cls-10" x1="153.25" y1="81.25" x2="153.25" y2="99.39"/><polygon class="cls-11" points="150.34 97.41 153.25 108.25 156.16 97.41 150.34 97.41"/><text class="cls-8" transform="translate(125.12 139.8)">i &lt; fin</text><line class="cls-17" x1="207.25" y1="135.25" x2="243.39" y2="135.25"/><polygon class="cls-18" points="241.41 138.16 252.25 135.25 241.41 132.34 241.41 138.16"/><text class="cls-19" transform="translate(214.84 126.25)"><tspan class="cls-20">T</tspan><tspan x="5.42" y="0">rue</tspan></text><text class="cls-21" transform="translate(284.98 140.18)">Bloc</text><text class="cls-16" transform="translate(187.85 192.68)">i = i + pas</text><path class="cls-10" d="M180.25,189.25H163.31a10.05,10.05,0,0,1-10.06-10.06v-8.08"/><polygon class="cls-11" points="156.16 173.09 153.25 162.25 150.34 173.09 156.16 173.09"/><path class="cls-10" d="M297.25,153.25v25.94a10.05,10.05,0,0,1-10.06,10.06h-8.08"/><polygon class="cls-11" points="281.09 186.34 270.25 189.25 281.09 192.16 281.09 186.34"/><path class="cls-22" d="M135.39,206.55H90.25a10.06,10.06,0,0,1-10.06-10.06V145.34a10.07,10.07,0,0,1,10-10.06l9,0"/><polygon class="cls-23" points="133.41 203.64 144.25 206.55 133.41 209.45 133.41 203.64"/><circle class="cls-11" cx="153.25" cy="206.55" r="4.5"/><text class="cls-12" transform="translate(140.52 225.25)">Sortie</text><text class="cls-24" transform="translate(47.47 175.05)"><tspan class="cls-25">F</tspan><tspan x="5.56" y="0">alse</tspan></text><polygon class="cls-26" points="153.54 162.25 99.25 135.21 153.54 108.25 207.25 135.25 153.54 162.25"/><rect class="cls-14" x="252.25" y="117.25" width="90" height="36" rx="7.45"/></g></g></svg>