<svg xmlns="http://www.w3.org/2000/svg" viewBox="0 0 360.5 657.5"><defs><style>.cls-1{fill:#f5f4f5;}.cls-2{fill:#eee;}.cls-3,.cls-4,.cls-6,.cls-8{fill:none;}.cls-3{stroke:#bdbcbc;stroke-width:0.5px;}.cls-12,.cls-19,.cls-26,.cls-28,.cls-3,.cls-4,.cls-6,.cls-8{stroke-miterlimit:10;}.cls-4{stroke:#424242;}.cls-20,.cls-5{fill:#424242;}.cls-6{stroke:#e84539;}.cls-17,.cls-28,.cls-29,.cls-30,.cls-7{fill:#e84539;}.cls-19,.cls-8{stroke:#4daf50;}.cls-10,.cls-19,.cls-33,.cls-9{fill:#4daf50;}.cls-10,.cls-22,.cls-30{font-size:11px;}.cls-10,.cls-13,.cls-18,.cls-20,.cls-22,.cls-27,.cls-29,.cls-30{font-family:SFProDisplay-Medium, SF Pro Display;}.cls-10,.cls-13,.cls-14,.cls-16,.cls-17,.cls-18,.cls-20,.cls-22,.cls-27,.cls-29,.cls-30,.cls-33{font-weight:500;}.cls-11{letter-spacing:-0.1em;}.cls-12{fill:#428ecc;stroke:#428ecc;}.cls-12,.cls-19,.cls-26,.cls-28{fill-opacity:0.3;}.cls-13,.cls-14,.cls-16,.cls-17,.cls-18,.cls-27,.cls-29,.cls-33{font-size:13px;}.cls-13,.cls-14{fill:#2e72b8;}.cls-14,.cls-16,.cls-17,.cls-33{font-family:SFMonoLigaturized-Medium, SF Mono;}.cls-15{font-family:SFProDisplay-Light, SF Pro Display;font-weight:300;}.cls-16,.cls-26,.cls-27,.cls-32{fill:#833e90;}.cls-18{fill:#388e3c;}.cls-20{font-size:10px;}.cls-21{letter-spacing:-0.02em;}.cls-22{fill:#bdbcbc;letter-spacing:0.2em;}.cls-23{letter-spacing:0.18em;}.cls-24{letter-spacing:0.2em;}.cls-25{letter-spacing:0.18em;}.cls-26{stroke:#833e90;}.cls-28{stroke:#e94539;}.cls-31{letter-spacing:-0.03em;}</style></defs><g id="Calque_2" data-name="Calque 2"><g id="Calque_2-2" data-name="Calque 2"><path class="cls-1" d="M12.08.25H348.42a11.83,11.83,0,0,1,11.83,11.83V441.25a0,0,0,0,1,0,0H.25a0,0,0,0,1,0,0V12.08A11.83,11.83,0,0,1,12.08.25Z"/><path class="cls-2" d="M.25,441.25h360a0,0,0,0,1,0,0v206a10,10,0,0,1-10,10h-340a10,10,0,0,1-10-10v-206A0,0,0,0,1,.25,441.25Z"/><rect class="cls-3" x="0.25" y="0.25" width="360" height="657" rx="10"/><line class="cls-3" x1="0.25" y1="441.06" x2="360.25" y2="441.06"/></g><g id="Calque_1-2" data-name="Calque 1"><line class="cls-4" x1="126.25" y1="369.25" x2="126.25" y2="396.39"/><polygon class="cls-5" points="123.34 394.41 126.25 405.25 129.16 394.41 123.34 394.41"/><path class="cls-4" d="M315.25,90.25h7.95a10.05,10.05,0,0,1,10.05,10V404.2a10.05,10.05,0,0,1-10.05,10.05H144.11"/><polygon class="cls-5" points="146.09 411.35 135.25 414.25 146.09 417.16 146.09 411.35"/><line class="cls-4" x1="315.25" y1="180.25" x2="333.25" y2="180.25"/><line class="cls-4" x1="315.25" y1="270.25" x2="333.25" y2="270.25"/><line class="cls-6" x1="126.25" y1="117.25" x2="126.25" y2="144.39"/><polygon class="cls-7" points="123.34 142.41 126.25 153.25 129.16 142.41 123.34 142.41"/><line class="cls-8" x1="180.25" y1="90.25" x2="216.39" y2="90.25"/><polygon class="cls-9" points="214.41 93.16 225.25 90.25 214.41 87.34 214.41 93.16"/><line class="cls-6" x1="126.25" y1="207.25" x2="126.25" y2="234.39"/><polygon class="cls-7" points="123.34 232.41 126.25 243.25 129.16 232.41 123.34 232.41"/><line class="cls-6" x1="126.25" y1="297.25" x2="126.25" y2="324.39"/><polygon class="cls-7" points="123.34 322.41 126.25 333.25 129.16 322.41 123.34 322.41"/><line class="cls-8" x1="180.25" y1="180.25" x2="216.39" y2="180.25"/><polygon class="cls-9" points="214.41 183.16 225.25 180.25 214.41 177.34 214.41 183.16"/><line class="cls-8" x1="180.25" y1="270.25" x2="216.39" y2="270.25"/><polygon class="cls-9" points="214.41 273.15 225.25 270.25 214.41 267.35 214.41 273.15"/><text class="cls-10" transform="translate(187.84 81.25)"><tspan class="cls-11">T</tspan><tspan x="5.42" y="0">rue</tspan></text><polygon class="cls-12" points="126.54 117.25 72.25 90.21 126.54 63.25 180.25 90.25 126.54 117.25"/><text class="cls-13" transform="translate(94.67 95.18)">Condition 1</text><text class="cls-14" transform="translate(38.18 86.55)">if<tspan class="cls-15"><tspan x="7.79" y="15.6">si</tspan></tspan></text><text class="cls-16" transform="translate(22.11 176.55)">elif<tspan class="cls-15"><tspan x="-7.37" y="15.6">sinon si</tspan></tspan></text><text class="cls-17" transform="translate(22.11 347.55)">else<tspan class="cls-15"><tspan x="3.57" y="15.6">sinon</tspan></tspan></text><line class="cls-4" x1="126.25" y1="36.25" x2="126.25" y2="54.39"/><polygon class="cls-5" points="123.34 52.41 126.25 63.25 129.16 52.41 123.34 52.41"/><text class="cls-18" transform="translate(253.7 95.18)">Bloc 1</text><rect class="cls-19" x="225.25" y="162.25" width="90" height="36" rx="7.45"/><rect class="cls-19" x="225.25" y="72.25" width="90" height="36" rx="7.45"/><text class="cls-18" transform="translate(252.9 185.18)">Bloc 2</text><rect class="cls-19" x="225.25" y="252.25" width="90" height="36" rx="7.45"/><text class="cls-18" transform="translate(252.73 275.18)">Bloc 3</text><circle class="cls-5" cx="126.32" cy="27.25" r="4.5"/><circle class="cls-5" cx="126.25" cy="413.55" r="4.5"/><text class="cls-20" transform="translate(112.32 18.25)">Ent<tspan class="cls-21" x="14.25" y="0">r</tspan><tspan x="17.31" y="0">ée</tspan></text><text class="cls-22" transform="translate(270.09 18.25)">DI<tspan class="cls-23" x="14.58" y="0">A</tspan><tspan class="cls-24" x="23.68" y="0">GRAMME</tspan></text><text class="cls-22" transform="translate(254.1 459.25)">CODE <tspan class="cls-25" x="42.71" y="0">P</tspan><tspan class="cls-24" x="51.25" y="0">YTHON</tspan></text><text class="cls-20" transform="translate(113.52 432.25)">Sortie</text><polygon class="cls-26" points="126.54 207.25 72.25 180.21 126.54 153.25 180.25 180.25 126.54 207.25"/><text class="cls-27" transform="translate(93.87 185.18)">Condition 2</text><polygon class="cls-26" points="126.54 297.25 72.25 270.21 126.54 243.25 180.25 270.25 126.54 297.25"/><text class="cls-27" transform="translate(93.7 275.18)">Condition 3</text><rect class="cls-28" x="81.25" y="333.25" width="90" height="36" rx="7.45"/><text class="cls-29" transform="translate(108.63 356.18)">Bloc 4</text><text class="cls-30" transform="translate(92.47 135.25)"><tspan class="cls-31">F</tspan><tspan x="5.56" y="0">alse</tspan></text><text class="cls-30" transform="translate(92.47 225.25)"><tspan class="cls-31">F</tspan><tspan x="5.56" y="0">alse</tspan></text><text class="cls-30" transform="translate(92.47 315.25)"><tspan class="cls-31">F</tspan><tspan x="5.56" y="0">alse</tspan></text><text class="cls-10" transform="translate(187.84 171.25)"><tspan class="cls-11">T</tspan><tspan x="5.42" y="0">rue</tspan></text><text class="cls-10" transform="translate(187.84 261.25)"><tspan class="cls-11">T</tspan><tspan x="5.42" y="0">rue</tspan></text><text class="cls-16" transform="translate(22.11 266.55)">elif<tspan class="cls-15"><tspan x="-7.37" y="15.6">sinon si</tspan></tspan></text><text class="cls-14" transform="translate(18.25 468.25)">if condition1:<tspan x="0" y="15.6" xml:space="preserve">    </tspan><tspan class="cls-32"><tspan x="0" y="46.8">elif condition2:</tspan></tspan><tspan x="0" y="62.4" xml:space="preserve">    </tspan><tspan class="cls-32"><tspan x="0" y="93.6">elif condition3:</tspan></tspan><tspan x="0" y="109.2" xml:space="preserve">    </tspan><tspan class="cls-7"><tspan x="0" y="140.4">else:</tspan></tspan></text><rect class="cls-19" x="37.65" y="474.25" width="180" height="25.46" rx="8.85"/><text class="cls-33"><tspan x="10.65" y="492.12" xml:space="preserve">    Bloc d’instructions 1</tspan></text><rect class="cls-19" x="37.65" y="521.17" width="180" height="25.46" rx="8.85"/><text class="cls-33"><tspan x="10.65" y="539.04" xml:space="preserve">    Bloc d’instructions 2</tspan></text><rect class="cls-19" x="37.65" y="568.82" width="180" height="25.46" rx="8.85"/><text class="cls-33"><tspan x="10.65" y="586.69" xml:space="preserve">    Bloc d’instructions 3</tspan></text><rect class="cls-28" x="37.65" y="617.52" width="180" height="25.46" rx="8.85"/><text class="cls-17"><tspan x="10.65" y="635.39" xml:space="preserve">    Bloc d’instructions 4</tspan></text></g></g></svg>