<svg xmlns="http://www.w3.org/2000/svg" viewBox="0 0 360.5 387.5"><defs><style>.cls-1{fill:#f5f4f5;}.cls-2{fill:#eee;}.cls-3,.cls-4,.cls-6,.cls-8{fill:none;}.cls-3{stroke:#bdbcbc;stroke-width:0.5px;}.cls-12,.cls-18,.cls-25,.cls-3,.cls-4,.cls-6,.cls-8{stroke-miterlimit:10;}.cls-4{stroke:#424242;}.cls-19,.cls-5{fill:#424242;}.cls-6{stroke:#e84539;}.cls-16,.cls-25,.cls-26,.cls-27,.cls-7{fill:#e84539;}.cls-18,.cls-8{stroke:#4daf50;}.cls-10,.cls-18,.cls-29,.cls-9{fill:#4daf50;}.cls-10,.cls-21,.cls-27{font-size:11px;}.cls-10,.cls-13,.cls-17,.cls-19,.cls-21,.cls-26,.cls-27{font-family:SFProDisplay-Medium, SF Pro Display;}.cls-10,.cls-13,.cls-14,.cls-16,.cls-17,.cls-19,.cls-21,.cls-26,.cls-27,.cls-29{font-weight:500;}.cls-11{letter-spacing:-0.1em;}.cls-12{fill:#428ecc;stroke:#428ecc;}.cls-12,.cls-18,.cls-25{fill-opacity:0.3;}.cls-13,.cls-14,.cls-16,.cls-17,.cls-26,.cls-29{font-size:13px;}.cls-13,.cls-14{fill:#2e72b8;}.cls-14,.cls-16,.cls-29{font-family:SFMonoLigaturized-Medium, SF Mono;}.cls-15{font-family:SFProDisplay-Light, SF Pro Display;font-weight:300;}.cls-17{fill:#388e3c;}.cls-19{font-size:10px;}.cls-20{letter-spacing:-0.02em;}.cls-21{fill:#bdbcbc;letter-spacing:0.2em;}.cls-22{letter-spacing:0.18em;}.cls-23{letter-spacing:0.2em;}.cls-24{letter-spacing:0.18em;}.cls-25{stroke:#e94539;}.cls-28{letter-spacing:-0.03em;}</style></defs><g id="Calque_2" data-name="Calque 2"><g id="Calque_2-2" data-name="Calque 2"><path class="cls-1" d="M10.25.25h340a10,10,0,0,1,10,10v305a0,0,0,0,1,0,0H.25a0,0,0,0,1,0,0v-305a10,10,0,0,1,10-10Z"/><path class="cls-2" d="M.25,261.25h360a0,0,0,0,1,0,0v116a10,10,0,0,1-10,10h-340a10,10,0,0,1-10-10v-116a0,0,0,0,1,0,0Z"/><rect class="cls-3" x="0.25" y="0.25" width="360" height="387" rx="10"/><line class="cls-3" x1="0.25" y1="261.25" x2="360.25" y2="261.25"/></g><g id="Calque_1-2" data-name="Calque 1"><line class="cls-4" x1="126.25" y1="189.25" x2="126.25" y2="216.39"/><polygon class="cls-5" points="123.34 214.41 126.25 225.25 129.16 214.41 123.34 214.41"/><path class="cls-4" d="M315.25,90.25h7.95a10.05,10.05,0,0,1,10.05,10V224.2a10.05,10.05,0,0,1-10.05,10.05H144.11"/><polygon class="cls-5" points="146.09 231.35 135.25 234.25 146.09 237.16 146.09 231.35"/><line class="cls-6" x1="126.25" y1="117.25" x2="126.25" y2="144.39"/><polygon class="cls-7" points="123.34 142.41 126.25 153.25 129.16 142.41 123.34 142.41"/><line class="cls-8" x1="180.25" y1="90.25" x2="216.39" y2="90.25"/><polygon class="cls-9" points="214.41 93.16 225.25 90.25 214.41 87.34 214.41 93.16"/><text class="cls-10" transform="translate(187.84 81.25)"><tspan class="cls-11">T</tspan><tspan x="5.42" y="0">rue</tspan></text><polygon class="cls-12" points="126.54 117.25 72.25 90.21 126.54 63.25 180.25 90.25 126.54 117.25"/><text class="cls-13" transform="translate(98.96 95.18)">Condition</text><text class="cls-14" transform="translate(38.18 86.55)">if<tspan class="cls-15"><tspan x="7.79" y="15.6">si</tspan></tspan></text><text class="cls-16" transform="translate(22.11 167.55)">else<tspan class="cls-15"><tspan x="3.57" y="15.6">sinon</tspan></tspan></text><line class="cls-4" x1="126.25" y1="36.25" x2="126.25" y2="54.39"/><polygon class="cls-5" points="123.34 52.41 126.25 63.25 129.16 52.41 123.34 52.41"/><text class="cls-17" transform="translate(253.7 95.18)">Bloc 1</text><rect class="cls-18" x="225.25" y="72.25" width="90" height="36" rx="7.45"/><circle class="cls-5" cx="126.32" cy="27.25" r="4.5"/><circle class="cls-5" cx="126.25" cy="233.55" r="4.5"/><text class="cls-19" transform="translate(112.32 18.25)">Ent<tspan class="cls-20" x="14.25" y="0">r</tspan><tspan x="17.31" y="0">ée</tspan></text><text class="cls-21" transform="translate(270.09 18.25)">DI<tspan class="cls-22" x="14.58" y="0">A</tspan><tspan class="cls-23" x="23.68" y="0">GRAMME</tspan></text><text class="cls-21" transform="translate(254.1 279.25)">CODE <tspan class="cls-24" x="42.71" y="0">P</tspan><tspan class="cls-23" x="51.25" y="0">YTHON</tspan></text><text class="cls-19" transform="translate(113.52 252.25)">Sortie</text><rect class="cls-25" x="81.25" y="153.25" width="90" height="36" rx="7.45"/><text class="cls-26" transform="translate(108.9 176.18)">Bloc 2</text><text class="cls-27" transform="translate(92.47 135.25)"><tspan class="cls-28">F</tspan><tspan x="5.56" y="0">alse</tspan></text><text class="cls-14" transform="translate(18.25 288.25)">if condition:<tspan x="0" y="15.6" xml:space="preserve">    </tspan><tspan class="cls-7"><tspan x="0" y="46.8">else:</tspan></tspan></text><rect class="cls-18" x="37.65" y="295.82" width="180" height="25.46" rx="8.85"/><text class="cls-29"><tspan x="10.65" y="313.69" xml:space="preserve">    Bloc d’instructions 1</tspan></text><rect class="cls-25" x="37.65" y="344.52" width="180" height="25.46" rx="8.85"/><text class="cls-16"><tspan x="10.65" y="362.39" xml:space="preserve">    Bloc d’instructions 2</tspan></text></g></g></svg>