<svg xmlns="http://www.w3.org/2000/svg" viewBox="0 0 360.5 283.98"><defs><style>.cls-1{fill:#f5f4f5;}.cls-2{fill:#eee;}.cls-10,.cls-12,.cls-3,.cls-8{fill:none;}.cls-3{stroke:#bdbcbc;stroke-width:0.5px;}.cls-10,.cls-12,.cls-16,.cls-22,.cls-3,.cls-8{stroke-miterlimit:10;}.cls-14,.cls-25,.cls-4{font-size:11px;}.cls-4{fill:#bdbcbc;letter-spacing:0.2em;}.cls-14,.cls-17,.cls-21,.cls-23,.cls-25,.cls-4{font-family:SFProDisplay-Medium, SF Pro Display;}.cls-14,.cls-17,.cls-18,.cls-21,.cls-23,.cls-25,.cls-27,.cls-4{font-weight:500;}.cls-5{letter-spacing:0.18em;}.cls-6{letter-spacing:0.2em;}.cls-7{letter-spacing:0.18em;}.cls-8{stroke:#424242;}.cls-23,.cls-9{fill:#424242;}.cls-10{stroke:#e84539;}.cls-11,.cls-25{fill:#e84539;}.cls-12,.cls-22{stroke:#4daf50;}.cls-13,.cls-14,.cls-22,.cls-27{fill:#4daf50;}.cls-15{letter-spacing:-0.1em;}.cls-16{fill:#428ecc;stroke:#428ecc;}.cls-16,.cls-22{fill-opacity:0.3;}.cls-17,.cls-18,.cls-21,.cls-27{font-size:13px;}.cls-17,.cls-18{fill:#2e72b8;}.cls-18,.cls-27{font-family:SFMonoLigaturized-Medium, SF Mono;}.cls-19{font-family:SFProDisplay-Light, SF Pro Display;font-weight:300;}.cls-20{letter-spacing:-0.01em;}.cls-21{fill:#388e3c;}.cls-23{font-size:10px;}.cls-24{letter-spacing:-0.02em;}.cls-26{letter-spacing:-0.03em;}</style></defs><g id="Calque_2" data-name="Calque 2"><g id="Calque_2-2" data-name="Calque 2"><path class="cls-1" d="M10.25.25h340a10,10,0,0,1,10,10v179a0,0,0,0,1,0,0H.25a0,0,0,0,1,0,0v-179A10,10,0,0,1,10.25.25Z"/><path class="cls-2" d="M.25,189.25h360a0,0,0,0,1,0,0v62a10,10,0,0,1-10,10h-340a10,10,0,0,1-10-10v-62A0,0,0,0,1,.25,189.25Z"/><rect class="cls-3" x="0.25" y="0.25" width="360" height="261" rx="10"/><line class="cls-3" x1="0.25" y1="189.25" x2="360.25" y2="189.25"/><text class="cls-4" transform="translate(270.09 18.25)">DI<tspan class="cls-5" x="14.58" y="0">A</tspan><tspan class="cls-6" x="23.68" y="0">GRAMME</tspan></text><text class="cls-4" transform="translate(254.1 207.25)">CODE <tspan class="cls-7" x="42.71" y="0">P</tspan><tspan class="cls-6" x="51.25" y="0">YTHON</tspan></text></g><g id="Calque_1-2" data-name="Calque 1"><path class="cls-8" d="M297.25,108.25v25.94a10.05,10.05,0,0,1-10.06,10.06H163.31a10.05,10.05,0,0,1-10.06-10.06v-8.08"/><polygon class="cls-9" points="156.16 128.09 153.25 117.25 150.34 128.09 156.16 128.09"/><path class="cls-10" d="M135.39,162.25H90.25a10.06,10.06,0,0,1-10.06-10.06V100.3a10.07,10.07,0,0,1,10-10.06l9,0"/><polygon class="cls-11" points="133.41 159.34 144.25 162.25 133.41 165.16 133.41 159.34"/><line class="cls-12" x1="207.25" y1="90.25" x2="243.39" y2="90.25"/><polygon class="cls-13" points="241.41 93.16 252.25 90.25 241.41 87.34 241.41 93.16"/><text class="cls-14" transform="translate(214.84 81.25)"><tspan class="cls-15">T</tspan><tspan x="5.42" y="0">rue</tspan></text><polygon class="cls-16" points="153.54 117.25 99.25 90.21 153.54 63.25 207.25 90.25 153.54 117.25"/><text class="cls-17" transform="translate(125.96 95.18)">Condition</text><text class="cls-18" transform="translate(23.07 86.55)">while<tspan class="cls-19"><tspan class="cls-20" x="-3.25" y="15.6">t</tspan><tspan x="0.26" y="15.6">ant que</tspan></tspan></text><line class="cls-8" x1="153.25" y1="36.25" x2="153.25" y2="54.39"/><polygon class="cls-9" points="150.34 52.41 153.25 63.25 156.16 52.41 150.34 52.41"/><text class="cls-21" transform="translate(284.98 95.18)">Bloc</text><rect class="cls-22" x="252.25" y="72.25" width="90" height="36" rx="7.45"/><circle class="cls-9" cx="153.32" cy="27.25" r="4.5"/><circle class="cls-9" cx="153.25" cy="162.25" r="4.5"/><text class="cls-23" transform="translate(139.32 18.25)">Ent<tspan class="cls-24" x="14.25" y="0">r</tspan><tspan x="17.31" y="0">ée</tspan></text><text class="cls-23" transform="translate(140.52 180.95)">Sortie</text><text class="cls-25" transform="translate(47.47 130.75)"><tspan class="cls-26">F</tspan><tspan x="5.56" y="0">alse</tspan></text><text class="cls-18" transform="translate(18.25 216.25)">while condition:<tspan x="0" y="15.6" xml:space="preserve">    </tspan></text><rect class="cls-22" x="37.65" y="222.25" width="163.38" height="25.46" rx="8.44"/><text class="cls-27"><tspan x="10.65" y="240.12" xml:space="preserve">    Bloc d’instructions</tspan></text></g></g></svg>