<?xml version="1.0" encoding="UTF-8" standalone="no"?>
<svg width="500" height="500" version="1.1" xmlns="http://www.w3.org/2000/svg">
  <g transform="translate(250,250)">
    <!-- Dessin de la Terre -->
    <circle cx="0" cy="0" r="100" fill="#44a2d2"/>
    <!-- Lignes de latitude -->
    <path d="M 0,-100 A 100,100 0 0,1 0,100 A 100,100 0 0,1 0,-100" fill="none" stroke="#ffffff" stroke-width="2" stroke-dasharray="5,5"/>
    <path d="M 0,-50 A 50,50 0 0,1 0,50 A 50,50 0 0,1 0,-50" fill="none" stroke="#ffffff" stroke-width="2" stroke-dasharray="5,5"/>
    <path d="M 0,0 A 100,100 0 0,0 0,-100" fill="none" stroke="#ffffff" stroke-width="2" stroke-dasharray="5,5"/>
    <!-- Lignes de longitude -->
    <path d="M -100,0 A 100,100 0 0,1 100,0 A 100,100 0 0,1 -100,0" fill="none" stroke="#ffffff" stroke-width="2" stroke-dasharray="5,5"/>
    <path d="M -50,0 A 50,50 0 0,1 50,0 A 50,50 0 0,1 -50,0" fill="none" stroke="#ffffff" stroke-width="2" stroke-dasharray="5,5"/>
    <path d="M 0,0 A 100,100 0 0,0 -100,0" fill="none" stroke="#ffffff" stroke-width="2" stroke-dasharray="5,5"/>
    <!-- Équateur -->
    <path d="M -100,0 A 100,100 0 0,1 100,0" fill="none" stroke="#ffffff" stroke-width="2" stroke-dasharray="5,5"/>
    <!-- Origine des coordonnées -->
    <circle cx="0" cy="0" r="5" fill="#000000"/>
  </g>
</svg>